<?xml version="1.0" standalone="no"?><!DOCTYPE svg PUBLIC "-//W3C//DTD SVG 1.1//EN" "http://www.w3.org/Graphics/SVG/1.1/DTD/svg11.dtd"><svg t="1508424964637" class="icon" style="" viewBox="0 0 1024 1024" version="1.1" xmlns="http://www.w3.org/2000/svg" p-id="11245" xmlns:xlink="http://www.w3.org/1999/xlink" width="200" height="200"><defs><style type="text/css"></style></defs><path d="M32 525.59375c10.21875-9.84375 18.9375-18 27.375-26.4375 39.5625-39.375 78.9375-78.9375 118.59375-118.125 5.0625-4.96875 6.84375-9.9375 6.84375-16.875-0.28125-43.21875-0.1875-86.4375-0.09375-129.65625 0-11.53125 0.65625-12.1875 11.8125-12.1875h783.65625c11.4375 0 11.8125 0.375 11.8125 12v555.5625c0 11.53125-0.375 11.90625-12 11.90625H197.28125c-12.09375 0-12.5625-0.46875-12.5625-12.375 0-35.25 0.1875-70.5-0.28125-105.75-0.09375-4.5-2.34375-10.125-5.53125-13.40625-45.75-46.125-91.78125-92.0625-137.8125-137.90625-2.4375-2.34375-5.4375-4.03125-9.09375-6.75z m695.15625 74.4375c49.03125 0 88.21875-39.1875 88.21875-88.03125 0-48.84375-39.28125-87.9375-88.21875-88.03125-48.84375 0-88.3125 39.28125-88.3125 88.03125 0 48.75 39.46875 88.03125 88.3125 88.03125z m-277.40625 0c49.03125 0 88.03125-39.09375 88.03125-88.03125s-39.1875-87.9375-88.21875-87.9375c-48.75 0.09375-88.40625 39.5625-88.3125 88.03125 0.09375 48.5625 39.75 87.9375 88.5 87.9375z" fill="#7F8EAC" p-id="11246"></path></svg>